<?xml version="1.0" encoding="UTF-8" standalone="no"?>
<svg
   xmlns:dc="http://purl.org/dc/elements/1.1/"
   xmlns:cc="http://creativecommons.org/ns#"
   xmlns:rdf="http://www.w3.org/1999/02/22-rdf-syntax-ns#"
   xmlns:svg="http://www.w3.org/2000/svg"
   xmlns="http://www.w3.org/2000/svg"
   id="svg30"
   xml:space="preserve"
   viewBox="0 0 535 151"
   height="151"
   width="535"
   version="1.1"><metadata
     id="metadata34"><rdf:RDF><cc:Work
         rdf:about=""><dc:format>image/svg+xml</dc:format><dc:type
           rdf:resource="http://purl.org/dc/dcmitype/StillImage" /></cc:Work></rdf:RDF></metadata><desc
     id="desc2">Created with Fabric.js 2.4.6</desc><defs
     id="defs4" /><g
     id="g8"
     transform="matrix(5.32,0,0,1.48,268,76)"><path
       id="rect6"
       d="M -50,-50 H 50 V 50 H -50 Z"
       style="opacity:1;fill:#ee1b41;fill-rule:nonzero;stroke:#000000;stroke-width:0;stroke-linecap:butt;stroke-linejoin:miter;stroke-miterlimit:4;stroke-dasharray:none;stroke-dashoffset:0" /></g><g
     id="g14"
     transform="translate(318.51,74.54)"><g
       id="text12"
       style="font-style:normal;font-weight:normal;font-size:88px;font-family:Ubuntu;white-space:pre;opacity:1;fill:#ffffff;fill-rule:nonzero;stroke:none;stroke-width:1;stroke-linecap:butt;stroke-linejoin:miter;stroke-miterlimit:4;stroke-dasharray:none;stroke-dashoffset:0"
       aria-label="EasyVent"><path
         id="path37"
         style=""
         d="m -176.44199,27.639999 v -60.984 h 37.224 v 7.304 h -28.688 v 18.1280004 h 25.52 v 7.12799999 h -25.52 V 20.335999 h 30.888 v 7.304 z" /><path
         id="path39"
         style=""
         d="m -111.29449,21.743999 q 2.904,0 5.104,-0.088 2.288,-0.176 3.784,-0.528 V 7.4879994 q -0.88,-0.44 -2.904,-0.704 -1.936,-0.352 -4.752,-0.352 -1.848,0 -3.96,0.264 -2.024,0.264 -3.784,1.144 -1.672,0.792 -2.816,2.2879996 -1.144,1.408 -1.144,3.784 0,4.4 2.816,6.16 2.816,1.672 7.656,1.672 z m -0.704,-41.008 q 4.928,0 8.272,1.32 3.432,1.232 5.455995,3.608 2.112,2.288 2.992,5.5440004 0.88,3.168 0.88,7.04 V 26.847999 q -1.056,0.176 -2.992,0.528 -1.848,0.264 -4.223995,0.528 -2.376,0.264 -5.192,0.44 -2.728,0.264 -5.456,0.264 -3.872,0 -7.128,-0.792 -3.256,-0.792 -5.632,-2.464 -2.376,-1.76 -3.696,-4.576 -1.32,-2.816 -1.32,-6.776 0,-3.784 1.496,-6.5119996 1.584,-2.728 4.224,-4.4 2.64,-1.672 6.16,-2.46400001 3.52,-0.792 7.392,-0.792 1.232,0 2.552,0.176 1.32,0.088 2.464,0.352 1.232,0.176 2.112,0.352 0.88,0.176 1.232,0.264 V -1.3120006 q 0,-2.024 -0.44,-3.96 -0.44,-2.024 -1.584,-3.52 -1.144,-1.5840004 -3.168,-2.4640004 -1.936,-0.968 -5.104,-0.968 -4.048,0 -7.128,0.616 -2.992,0.528 -4.488,1.144 l -0.968,-6.776 q 1.584,-0.704 5.28,-1.32 3.696,-0.704 8.008,-0.704 z" /><path
         id="path41"
         style=""
         d="m -70.24387,21.743999 q 5.016,0 7.392,-1.32 2.464,-1.32 2.464,-4.224 0,-2.992 -2.376,-4.752 -2.376,-1.7599996 -7.832,-3.9599996 -2.64,-1.056 -5.104,-2.112 -2.376,-1.144 -4.136,-2.64 -1.76,-1.496 -2.816,-3.60800001 -1.056,-2.11199999 -1.056,-5.19199999 0,-6.0720004 4.488,-9.5920004 4.488,-3.608 12.232,-3.608 1.936,0 3.872,0.264 1.936,0.176 3.608,0.528 1.672,0.264 2.904,0.616 1.32,0.352 2.024,0.616 l -1.496,7.04 q -1.32,-0.704 -4.136,-1.408 -2.816,-0.792 -6.776,-0.792 -3.432,0 -5.984,1.408 -2.552,1.3200004 -2.552,4.2240004 0,1.496 0.528,2.64 0.616,1.144 1.76,2.112 1.232,0.88 2.992,1.67199999 1.76,0.792 4.224,1.67200001 3.256,1.232 5.808,2.464 2.552,1.144 4.312,2.728 1.848,1.584 2.816,3.8719996 0.968,2.2 0.968,5.456 0,6.336 -4.752,9.592 -4.664,3.256 -13.376,3.256 -6.072,0 -9.504,-1.056 -3.432,-0.968 -4.664,-1.496 l 1.496,-7.04 q 1.408,0.528 4.488,1.584 3.08,1.056 8.184,1.056 z" /><path
         id="path43"
         style=""
         d="m -47.07237,36.175999 q 0.968,0.44 2.464,0.792 1.584,0.44 3.08,0.44 4.84,0 7.568,-2.2 2.728,-2.112 4.928,-6.952 -5.544,-10.56 -10.384,-22.3519996 -4.752,-11.88 -7.92,-24.0240004 h 8.8 q 0.968,3.96 2.288,8.5360004 1.408,4.576 3.08,9.41599999 1.672,4.84000001 3.608,9.68000001 1.936,4.8399996 4.048,9.3279996 3.344,-9.2399996 5.808,-18.30399961 2.464,-9.06399999 4.664,-18.65600039 h 8.4480005 q -3.168,12.9360004 -7.0400005,24.9040004 -3.872,11.8799996 -8.36,22.2639996 -1.76,3.96 -3.696,6.776 -1.848,2.904 -4.136,4.752 -2.288,1.848 -5.192,2.728 -2.816,0.88 -6.424,0.88 -0.968,0 -2.024,-0.176 -1.056,-0.088 -2.112,-0.352 -0.968,-0.176 -1.848,-0.44 -0.792,-0.264 -1.144,-0.44 z" /><path
         id="path45"
         style=""
         d="m 51.75988,-33.344001 q -3.344,9.68 -6.424,17.952 -2.992,8.1840004 -5.896,15.57600039 -2.904,7.39200001 -5.808,14.16799961 -2.816,6.688 -5.808,13.288 h -8.008 q -2.992,-6.6 -5.896,-13.288 -2.816,-6.7759996 -5.8079995,-14.16799961 -2.904,-7.39199999 -5.984,-15.57600039 -3.08000001,-8.272 -6.336,-17.952 h 9.416 q 4.752,13.904 9.3279995,26.7520004 4.576,12.848 9.416,24.1119996 4.84,-11.1759996 9.416,-24.0239996 4.576,-12.9360004 9.24,-26.8400004 z" /><path
         id="path47"
         style=""
         d="m 53.196755,4.8479994 q 0,-6.072 1.76,-10.56 1.76,-4.5760004 4.664,-7.5680004 2.904,-2.992 6.688,-4.488 3.784,-1.496 7.744,-1.496 9.24,0 14.168,5.808 4.928,5.7200004 4.928,17.5120004 0,0.528 0,1.408 0,0.792 -0.088,1.496 h -31.328 q 0.528,7.1279996 4.136,10.8239996 3.608,3.696 11.264,3.696 4.312,0 7.216,-0.704 2.992,-0.792 4.488,-1.496 l 1.144,6.864 q -1.496,0.792 -5.28,1.672 -3.696,0.88 -8.448,0.88 -5.984,0 -10.384,-1.76 -4.312,-1.848 -7.128,-5.016 -2.816,-3.168 -4.224,-7.48 -1.32,-4.4 -1.32,-9.5919996 z m 31.416,-4.48800001 q 0.088,-5.54399999 -2.816,-9.06399999 -2.816,-3.6080004 -7.832,-3.6080004 -2.816,0 -5.016,1.144 -2.112,1.056 -3.608,2.8160004 -1.496,1.76 -2.376,4.048 -0.792,2.288 -1.056,4.66399999 z" /><path
         id="path49"
         style=""
         d="m 104.90501,-16.800001 q 2.816,-0.704 7.48,-1.496 4.664,-0.792 10.736,-0.792 5.456,0 9.064,1.584 3.608,1.496 5.72,4.312 2.2,2.728 3.08,6.6000004 0.88,3.872 0.88,8.536 V 27.639999 h -8.184 V 3.7039994 q 0,-4.22400001 -0.616,-7.216 -0.528,-2.992 -1.848,-4.84 -1.32,-1.8480004 -3.52,-2.6400004 -2.2,-0.88 -5.456,-0.88 -1.32,0 -2.728,0.088 -1.408,0.088 -2.728,0.264 -1.232,0.088 -2.288,0.264 -0.968,0.176 -1.408,0.264 v 38.632 h -8.184 z" /><path
         id="path51"
         style=""
         d="m 163.09226,-18.120001 h 17.336 v 6.864 h -17.336 V 9.8639994 q 0,3.4319996 0.528,5.7199996 0.528,2.2 1.584,3.52 1.056,1.232 2.64,1.76 1.584,0.528 3.696,0.528 3.696,0 5.896,-0.792 2.288,-0.88 3.168,-1.232 l 1.584,6.776 q -1.232,0.616 -4.312,1.496 -3.08,0.968 -7.04,0.968 -4.664,0 -7.744,-1.144 -2.992,-1.232 -4.84,-3.608 -1.848,-2.376 -2.64,-5.808 -0.704,-3.52 -0.704,-8.0959996 V -30.880001 l 8.184,-1.408 z" /></g></g><g
     id="g28"
     transform="matrix(1.18,0,0,1.18,81.3,73.48)"><g
       id="g18"
       transform="matrix(1.03,0,0,1.03,15.17,-33.33)"><path
         id="path16"
         d="M 73.021,26.537 C 72.525,26.361 72.248,25.827 72.396,25.316 74.386,18.473 73.05,13.221 68.536,10.128 68.377,10.019 68.215,9.912 68.049,9.81 67.579,9.518 67.436,8.902 67.729,8.433 68.02,7.964 68.637,7.821 69.105,8.111 c 0.192,0.12 0.38,0.242 0.562,0.368 5.221,3.577 6.871,9.755 4.651,17.396 -0.154,0.53 -0.708,0.836 -1.239,0.682 -0.021,-0.007 -0.041,-0.013 -0.058,-0.02 z"
         transform="translate(-71.43,-17.28)"
         style="opacity:1;fill:#ffffff;fill-rule:nonzero;stroke:none;stroke-width:1;stroke-linecap:butt;stroke-linejoin:miter;stroke-miterlimit:4;stroke-dasharray:none;stroke-dashoffset:0" /></g><g
       id="g22"
       transform="matrix(1.03,0,0,1.03,20.39,-8.05)"><path
         id="path20"
         d="m 74.122,48.588 c -0.177,-0.063 -0.338,-0.176 -0.461,-0.337 -0.334,-0.439 -0.248,-1.066 0.191,-1.401 0.785,-0.597 1.447,-1.304 1.964,-2.103 1.492,-2.305 2.757,-5.592 0.302,-8.155 -0.381,-0.398 -0.367,-1.031 0.031,-1.414 0.4,-0.381 1.029,-0.369 1.415,0.031 2.619,2.736 2.595,6.511 -0.069,10.625 -0.645,0.993 -1.461,1.871 -2.432,2.608 -0.279,0.212 -0.634,0.255 -0.941,0.146 z"
         transform="translate(-76.48,-41.77)"
         style="opacity:1;fill:#ffffff;fill-rule:nonzero;stroke:none;stroke-width:1;stroke-linecap:butt;stroke-linejoin:miter;stroke-miterlimit:4;stroke-dasharray:none;stroke-dashoffset:0" /></g><g
       id="g26"
       transform="matrix(1.03,0,0,1.03,-0.06,-0.1)"><path
         id="path24"
         d="M 78.501,30.173 C 78.48,30.157 78.458,30.141 78.436,30.126 l -0.038,-0.023 c -0.025,-0.018 -0.094,-0.061 -0.119,-0.077 -0.014,-0.007 -0.025,-0.015 -0.037,-0.021 -0.168,-0.104 -0.34,-0.186 -0.508,-0.282 0.225,-0.539 0.436,-1.088 0.619,-1.658 C 82.996,13.622 75.716,5.297 67.353,2.325 67.193,2.267 67.031,2.212 66.867,2.158 V 2.161 C 66.84,2.149 66.814,2.14 66.788,2.131 66.773,2.125 66.691,2.098 66.678,2.093 66.637,2.079 66.597,2.069 66.557,2.06 57.869,-0.605 46.95,1.781 42.232,16.452 c -3.776,11.743 3.697,22.823 7.641,27.168 -0.217,0.247 -0.352,0.538 -0.382,0.9 -0.05,0.57 0.221,1.354 1.154,1.687 0.11,0.039 0.234,0.068 0.358,0.094 -0.713,2.143 -1.096,4.199 -1.608,6.972 -0.119,0.646 -0.246,1.334 -0.387,2.073 -0.62,3.256 -2.981,6.463 -4.706,8.805 -0.724,0.982 -1.348,1.831 -1.728,2.521 -4.424,8.064 -6.913,17.128 -8.4,22.543 -0.586,2.137 -1.05,3.824 -1.382,4.537 -0.604,1.301 -1.586,2.385 -2.021,2.23 -0.521,-0.186 -1.092,0.086 -1.277,0.607 -0.185,0.521 0.086,1.092 0.607,1.276 1.89,0.673 3.566,-1.249 4.506,-3.271 0.402,-0.866 0.86,-2.537 1.496,-4.852 1.464,-5.33 3.914,-14.252 8.226,-22.111 0.315,-0.572 0.902,-1.371 1.584,-2.296 1.838,-2.497 4.355,-5.914 5.061,-9.618 0.141,-0.743 0.268,-1.434 0.389,-2.083 0.514,-2.788 0.877,-4.729 1.55,-6.738 0.001,0 0.001,10e-4 0.003,0.002 0.238,0.251 0.485,0.512 0.888,0.655 0.002,0.001 0.002,0.001 0.002,0.001 0.434,0.154 0.908,0.111 1.302,-0.117 0.382,-0.222 0.681,-0.667 0.757,-1.103 0.029,-0.162 0.039,-0.334 0.02,-0.546 0.738,-0.14 1.57,-0.339 2.467,-0.595 0.289,2.846 1.147,5.42 2.043,7.212 -0.137,0.15 -0.248,0.321 -0.32,0.515 -0.273,0.773 0.062,1.576 0.791,1.994 -0.795,1.007 -1.621,1.867 -2.48,2.747 -1.109,1.136 -2.256,2.31 -3.439,3.921 -1.346,1.831 -3.677,5.51 -4.167,9.561 -1.342,11.047 -6.62,18.432 -8.54,20.346 -0.517,0.516 -1.07,0.775 -1.794,0.843 -0.549,0.05 -0.955,0.537 -0.904,1.087 0.037,0.4 0.306,0.725 0.662,0.851 0.132,0.047 0.276,0.067 0.426,0.053 1.188,-0.109 2.176,-0.572 3.022,-1.417 2.557,-2.549 7.752,-10.325 9.11,-21.523 0.434,-3.598 2.563,-6.942 3.792,-8.616 1.102,-1.498 2.197,-2.621 3.259,-3.708 0.827,-0.847 1.671,-1.73 2.499,-2.76 0.228,0.281 0.496,0.516 0.805,0.625 l 0.002,10e-4 c 0.762,0.271 1.597,-0.079 1.967,-0.865 0.06,-0.118 0.116,-0.232 0.168,-0.345 4.141,0.263 11.93,-1.117 16.018,-7.434 4.469,-6.905 3.381,-14.003 -2.771,-18.108 z m -17.07,10.742 c 0.248,-1.492 0.755,-2.99 1.67,-4.401 2.859,-4.415 6.561,-6.261 10.505,-5.282 -3.021,4.887 -7.943,7.915 -12.175,9.683 z m -7.592,2.13 C 53.737,43.053 53.571,43.033 53.273,42.786 50.738,40.576 41.313,29.105 45.087,17.367 48.54,6.63 56.271,1.989 65.769,4.954 c 0.025,0.008 0.051,0.016 0.076,0.021 0.025,0.011 0.053,0.021 0.08,0.028 l 0.424,0.146 c 9.113,3.241 12.533,11.464 9.148,21.996 -0.152,0.471 -0.324,0.923 -0.508,1.368 -5.379,-1.65 -10.732,0.693 -14.406,6.369 -1.476,2.276 -2.145,4.758 -2.303,7.177 -2.058,0.638 -3.693,0.935 -4.441,0.986 z m 24.914,3.604 c -4.158,6.422 -12.747,6.255 -14.266,5.956 -0.202,-0.039 -0.467,-0.02 -0.818,-0.501 -0.645,-0.963 -2.145,-4.164 -2.391,-7.896 5.219,-2.002 11.477,-5.75 15.101,-11.811 0.106,0.064 0.218,0.115 0.323,0.183 0.014,0.009 0.029,0.019 0.044,0.027 0.011,0.007 0.022,0.015 0.032,0.021 4.85,3.201 5.588,8.442 1.975,14.021 z"
         transform="translate(-56.72,-49.56)"
         style="opacity:1;fill:#ffffff;fill-rule:nonzero;stroke:none;stroke-width:1;stroke-linecap:butt;stroke-linejoin:miter;stroke-miterlimit:4;stroke-dasharray:none;stroke-dashoffset:0" /></g></g></svg>